<?xml version="1.0" encoding="UTF-8"?>
<svg xmlns="http://www.w3.org/2000/svg" xmlns:xlink="http://www.w3.org/1999/xlink" width="507pt" height="156pt" viewBox="0 0 507 156" version="1.1">
<g id="surface1">
<path style=" stroke:none;fill-rule:nonzero;fill:rgb(7.058824%,13.333333%,18.039216%);fill-opacity:1;" d="M 445.6875 93.316406 L 445.6875 146.542969 C 445.6875 150.476562 448.875 153.664062 452.796875 153.664062 L 470.804688 153.664062 C 474.785156 153.664062 475.863281 150.179688 475.78125 146.1875 L 475.78125 92.136719 C 476.03125 75.265625 487.480469 62.417969 501.195312 59.308594 C 504.507812 58.625 506.894531 55.71875 506.933594 52.328125 L 506.933594 35.167969 C 506.9375 33.109375 506.050781 31.152344 504.503906 29.796875 C 502.957031 28.4375 500.902344 27.820312 498.863281 28.089844 C 469.039062 32.371094 445.953125 59.9375 445.6875 93.316406 Z M 445.6875 93.316406 "/>
<path style=" stroke:none;fill-rule:nonzero;fill:rgb(7.058824%,13.333333%,18.039216%);fill-opacity:1;" d="M 252.113281 106.519531 L 283.347656 36.890625 C 284.496094 34.328125 287.03125 32.6875 289.832031 32.6875 L 307.765625 32.6875 C 310.1875 32.6875 312.445312 33.917969 313.753906 35.960938 C 315.0625 38.007812 315.238281 40.574219 314.222656 42.78125 L 265.222656 149.53125 C 264.058594 152.058594 261.53125 153.667969 258.757812 153.664062 L 245.464844 153.664062 C 242.6875 153.664062 240.164062 152.046875 239.007812 149.515625 L 190.011719 42.78125 C 189 40.574219 189.175781 38.007812 190.484375 35.960938 C 191.792969 33.921875 194.050781 32.6875 196.472656 32.6875 L 214.402344 32.6875 C 217.199219 32.6875 219.738281 34.328125 220.886719 36.890625 Z M 252.113281 106.519531 "/>
<path style=" stroke:none;fill-rule:nonzero;fill:rgb(7.058824%,13.333333%,18.039216%);fill-opacity:1;" d="M 185.15625 103.125 L 103.675781 103.125 C 109.460938 118.796875 122.429688 126.144531 134.925781 126.144531 C 145.34375 126.144531 154.371094 121.488281 161.3125 116.34375 C 164.554688 114.386719 167.339844 114.632812 169.882812 117.816406 L 180.066406 130.550781 C 182.613281 133.980469 182.144531 137.167969 179.136719 139.613281 C 164.097656 151.859375 147.890625 156.265625 134.464844 156.265625 C 99.277344 156.265625 72.890625 126.878906 72.890625 91.855469 C 72.890625 57.082031 99.042969 29.890625 132.148438 29.890625 C 164.328125 29.890625 188.632812 55.601562 190.949219 96.75 C 191.179688 100.917969 188.863281 103.125 185.15625 103.125 Z M 158.535156 78.632812 C 156.0625 65.628906 144.664062 56.253906 131.445312 56.347656 C 117.550781 56.347656 106.445312 65.652344 103.902344 78.632812 Z M 158.535156 78.632812 "/>
<path style=" stroke:none;fill-rule:nonzero;fill:rgb(7.058824%,13.333333%,18.039216%);fill-opacity:1;" d="M 427.058594 103.125 L 345.574219 103.125 C 351.359375 118.796875 364.328125 126.144531 376.832031 126.144531 C 387.246094 126.144531 396.269531 121.488281 403.214844 116.34375 C 406.453125 114.386719 409.238281 114.632812 411.78125 117.816406 L 421.964844 130.550781 C 424.511719 133.980469 424.050781 137.167969 421.039062 139.613281 C 405.996094 151.859375 389.789062 156.265625 376.363281 156.265625 C 341.175781 156.265625 314.789062 126.878906 314.789062 91.855469 C 314.789062 57.082031 340.953125 29.890625 374.054688 29.890625 C 406.230469 29.890625 430.539062 55.601562 432.851562 96.75 C 433.082031 100.917969 430.761719 103.125 427.058594 103.125 Z M 400.441406 78.632812 C 397.960938 65.632812 386.566406 56.257812 373.355469 56.347656 C 359.460938 56.347656 348.355469 65.652344 345.8125 78.632812 Z M 400.441406 78.632812 "/>
<path style=" stroke:none;fill-rule:nonzero;fill:rgb(7.058824%,13.333333%,18.039216%);fill-opacity:1;" d="M 32.480469 75.410156 L 32.480469 70.820312 C 32.488281 52.28125 43.585938 36.824219 58.195312 33.574219 C 61.488281 32.890625 63.859375 29.988281 63.878906 26.617188 L 63.878906 7.140625 C 63.886719 5.097656 63.011719 3.144531 61.476562 1.789062 C 59.945312 0.433594 57.90625 -0.191406 55.875 0.0664062 C 24.59375 4.492188 0.296875 34.308594 0.105469 70.421875 L 0.105469 146.542969 C 0.105469 150.476562 3.289062 153.664062 7.214844 153.664062 L 25.367188 153.664062 C 29.296875 153.664062 32.480469 150.476562 32.480469 146.542969 L 32.480469 102.832031 L 52.027344 102.832031 C 55.957031 102.832031 59.144531 99.644531 59.144531 95.710938 L 59.144531 82.53125 C 59.144531 78.597656 55.957031 75.410156 52.027344 75.410156 Z M 32.480469 75.410156 "/>
</g>
</svg>
