<svg id="Capa_1" data-name="Capa 1" xmlns="http://www.w3.org/2000/svg" viewBox="0 0 1130.54 348"><defs><style>.cls-1{fill:#12222e;}</style></defs><title>Logo_Fever</title><path class="cls-1" d="M994,207.81h0V326.34a15.86,15.86,0,0,0,15.86,15.86h40.16c8.89,0,11.29-7.76,11.11-16.65V205.18c.56-37.57,26.1-66.18,56.69-73.1a16.05,16.05,0,0,0,12.8-15.54V78.32a15.88,15.88,0,0,0-18-15.76C1046.09,72.09,994.59,133.48,994,207.81Z"/><path class="cls-1" d="M562.18,237.22,631.85,82.15a15.85,15.85,0,0,1,14.47-9.36h40a15.85,15.85,0,0,1,14.41,22.48L591.42,333A15.85,15.85,0,0,1,577,342.2H547.34a15.84,15.84,0,0,1-14.4-9.23L423.64,95.27a15.86,15.86,0,0,1,14.41-22.48h40a15.85,15.85,0,0,1,14.46,9.36Z"/><path class="cls-1" d="M412.82,229.65H231.05c12.91,34.91,41.83,51.27,69.71,51.27,23.24,0,43.38-10.37,58.87-21.82,7.23-4.36,13.43-3.82,19.11,3.27l22.72,28.36c5.68,7.64,4.64,14.73-2.07,20.18C365.83,338.18,329.68,348,299.73,348c-78.49,0-137.36-65.45-137.36-143.44,0-77.44,58.35-138,132.2-138,71.77,0,126,57.26,131.16,148.89C426.24,224.74,421.08,229.65,412.82,229.65Zm-59.39-54.54A61.07,61.07,0,0,0,293,125.48c-31,0-55.77,20.73-61.45,49.63Z"/><path class="cls-1" d="M952.44,229.65H770.67c12.91,34.91,41.83,51.27,69.72,51.27,23.23,0,43.37-10.37,58.86-21.82,7.23-4.36,13.43-3.82,19.11,3.27l22.72,28.36c5.68,7.64,4.65,14.73-2.07,20.18C905.45,338.18,869.3,348,839.35,348,760.86,348,702,282.55,702,204.56c0-77.44,58.36-138,132.2-138,71.78,0,126,57.26,131.16,148.89C965.87,224.74,960.7,229.65,952.44,229.65Zm-59.38-54.54a61.09,61.09,0,0,0-60.42-49.63c-31,0-55.77,20.73-61.45,49.63Z"/><path class="cls-1" d="M72.22,167.94l0-10.23C72.25,116.43,97,82,129.59,74.77a15.93,15.93,0,0,0,12.68-15.49V15.91A15.83,15.83,0,0,0,124.42.15C54.63,10,.43,76.4,0,156.83H0V326.34A15.86,15.86,0,0,0,15.86,342.2h40.5a15.86,15.86,0,0,0,15.86-15.86V229h43.62a15.86,15.86,0,0,0,15.86-15.86V183.79a15.85,15.85,0,0,0-15.86-15.85Z"/></svg>