<?xml version="1.0" encoding="UTF-8"?>
<svg xmlns="http://www.w3.org/2000/svg" xmlns:xlink="http://www.w3.org/1999/xlink" width="380pt" height="117pt" viewBox="0 0 380 117" version="1.1">
<g id="surface1">
<path style=" stroke:none;fill-rule:nonzero;fill:rgb(7.058824%,13.333333%,18.039216%);fill-opacity:1;" d="M 334.046875 69.867188 L 334.046875 109.71875 C 334.046875 112.664062 336.433594 115.050781 339.375 115.050781 L 352.871094 115.050781 C 355.855469 115.050781 356.664062 112.441406 356.601562 109.453125 L 356.601562 68.984375 C 356.789062 56.351562 365.371094 46.734375 375.648438 44.40625 C 378.132812 43.894531 379.921875 41.71875 379.949219 39.179688 L 379.949219 26.332031 C 379.953125 24.789062 379.289062 23.324219 378.128906 22.308594 C 376.96875 21.292969 375.429688 20.828125 373.902344 21.03125 C 351.546875 24.238281 334.246094 44.875 334.046875 69.867188 Z M 334.046875 69.867188 "/>
<path style=" stroke:none;fill-rule:nonzero;fill:rgb(7.058824%,13.333333%,18.039216%);fill-opacity:1;" d="M 188.960938 79.753906 L 212.371094 27.621094 C 213.230469 25.703125 215.132812 24.472656 217.230469 24.472656 L 230.671875 24.472656 C 232.488281 24.472656 234.179688 25.394531 235.160156 26.925781 C 236.140625 28.457031 236.273438 30.378906 235.511719 32.03125 L 198.785156 111.957031 C 197.914062 113.847656 196.019531 115.054688 193.941406 115.050781 L 183.976562 115.050781 C 181.894531 115.050781 180.003906 113.839844 179.136719 111.945312 L 142.414062 32.03125 C 141.65625 30.378906 141.789062 28.457031 142.769531 26.925781 C 143.75 25.398438 145.441406 24.472656 147.257812 24.472656 L 160.695312 24.472656 C 162.792969 24.472656 164.695312 25.703125 165.554688 27.621094 Z M 188.960938 79.753906 "/>
<path style=" stroke:none;fill-rule:nonzero;fill:rgb(7.058824%,13.333333%,18.039216%);fill-opacity:1;" d="M 138.777344 77.210938 L 77.707031 77.210938 C 82.042969 88.945312 91.761719 94.445312 101.128906 94.445312 C 108.9375 94.445312 115.703125 90.960938 120.90625 87.109375 C 123.335938 85.644531 125.421875 85.828125 127.328125 88.210938 L 134.960938 97.746094 C 136.871094 100.3125 136.519531 102.699219 134.265625 104.53125 C 122.992188 113.699219 110.84375 117 100.78125 117 C 74.410156 117 54.632812 94.996094 54.632812 68.773438 C 54.632812 42.738281 74.234375 22.378906 99.046875 22.378906 C 123.164062 22.378906 141.382812 41.628906 143.117188 72.4375 C 143.289062 75.558594 141.554688 77.210938 138.777344 77.210938 Z M 118.824219 58.875 C 116.96875 49.136719 108.425781 42.117188 98.519531 42.1875 C 88.105469 42.1875 79.78125 49.15625 77.875 58.875 Z M 118.824219 58.875 "/>
<path style=" stroke:none;fill-rule:nonzero;fill:rgb(7.058824%,13.333333%,18.039216%);fill-opacity:1;" d="M 320.082031 77.210938 L 259.011719 77.210938 C 263.347656 88.945312 273.066406 94.445312 282.4375 94.445312 C 290.242188 94.445312 297.007812 90.960938 302.210938 87.109375 C 304.640625 85.644531 306.726562 85.828125 308.632812 88.210938 L 316.265625 97.746094 C 318.175781 100.3125 317.828125 102.699219 315.570312 104.53125 C 304.296875 113.699219 292.148438 117 282.085938 117 C 255.714844 117 235.9375 94.996094 235.9375 68.773438 C 235.9375 42.738281 255.546875 22.378906 280.355469 22.378906 C 304.472656 22.378906 322.691406 41.628906 324.425781 72.4375 C 324.597656 75.558594 322.859375 77.210938 320.082031 77.210938 Z M 300.132812 58.875 C 298.273438 49.140625 289.734375 42.121094 279.832031 42.1875 C 269.417969 42.1875 261.09375 49.15625 259.1875 58.875 Z M 300.132812 58.875 "/>
<path style=" stroke:none;fill-rule:nonzero;fill:rgb(7.058824%,13.333333%,18.039216%);fill-opacity:1;" d="M 24.34375 56.460938 L 24.34375 53.023438 C 24.351562 39.144531 32.667969 27.570312 43.617188 25.136719 C 46.085938 24.625 47.863281 22.453125 47.878906 19.929688 L 47.878906 5.347656 C 47.882812 3.816406 47.226562 2.355469 46.078125 1.339844 C 44.929688 0.324219 43.402344 -0.144531 41.878906 0.0507812 C 18.433594 3.363281 0.222656 25.6875 0.078125 52.726562 L 0.078125 109.71875 C 0.078125 112.664062 2.464844 115.050781 5.40625 115.050781 L 19.011719 115.050781 C 21.957031 115.050781 24.34375 112.664062 24.34375 109.71875 L 24.34375 76.992188 L 38.996094 76.992188 C 41.941406 76.992188 44.328125 74.605469 44.328125 71.660156 L 44.328125 61.792969 C 44.328125 58.847656 41.941406 56.460938 38.996094 56.460938 Z M 24.34375 56.460938 "/>
</g>
</svg>
